<svg xmlns="http://www.w3.org/2000/svg" viewBox="0 0 576 512"><!-- Font Awesome Pro 5.15.4 by @fontawesome - https://fontawesome.com License - https://fontawesome.com/license (Commercial License) --><path d="M325.1 167.8c0-16.4-14.1-18.4-27.4-18.4l-39.1-.3v69.3H275v-25.1h18c18.4 0 14.5 10.3 14.8 25.1h16.6v-13.5c0-9.2-1.5-15.1-11-18.4 7.4-3 11.8-10.7 11.7-18.7zm-29.4 11.3H275v-15.3h21c5.1 0 10.7 1 10.7 7.4 0 6.6-5.3 7.9-11 7.9zM279 268.6h-52.7l-21 22.8-20.5-22.8h-66.5l-.1 69.3h65.4l21.3-23 20.4 23h32.2l.1-23.3c18.9 0 49.3 4.6 49.3-23.3 0-17.3-12.3-22.7-27.9-22.7zm-103.8 54.7h-40.6v-13.8h36.3v-14.1h-36.3v-12.5h41.7l17.9 20.2zm65.8 8.2l-25.3-28.1L241 276zm37.8-31h-21.2v-17.6h21.5c5.6 0 10.2 2.3 10.2 8.4 0 6.4-4.6 9.2-10.5 9.2zm-31.6-136.7v-14.6h-55.5v69.3h55.5v-14.3h-38.9v-13.8h37.8v-14.1h-37.8v-12.5zM576 255.4h-.2zm-194.6 31.9c0-16.4-14.1-18.7-27.1-18.7h-39.4l-.1 69.3h16.6l.1-25.3h17.6c11 0 14.8 2 14.8 13.8l-.1 11.5h16.6l.1-13.8c0-8.9-1.8-15.1-11-18.4 7.7-3.1 11.8-10.8 11.9-18.4zm-29.2 11.2h-20.7v-15.6h21c5.1 0 10.7 1 10.7 7.4 0 6.9-5.4 8.2-11 8.2zm-172.8-80v-69.3h-27.6l-19.7 47-21.7-47H83.3v65.7l-28.1-65.7H30.7L1 218.5h17.9l6.4-15.3h34.5l6.4 15.3H100v-54.2l24 54.2h14.6l24-54.2v54.2zM31.2 188.8l11.2-27.6 11.5 27.6zm477.4 158.9v-4.5c-10.8 5.6-3.9 4.5-156.7 4.5 0-25.2.1-23.9 0-25.2-1.7-.1-3.2-.1-9.4-.1 0 17.9-.1 6.8-.1 25.3h-39.6c0-12.1.1-15.3.1-29.2-10 6-22.8 6.4-34.3 6.2 0 14.7-.1 8.3-.1 23h-48.9c-5.1-5.7-2.7-3.1-15.4-17.4-3.2 3.5-12.8 13.9-16.1 17.4h-82v-92.3h83.1c5 5.6 2.8 3.1 15.5 17.2 3.2-3.5 12.2-13.4 15.7-17.2h58c9.8 0 18 1.9 24.3 5.6v-5.6c54.3 0 64.3-1.4 75.7 5.1v-5.1h78.2v5.2c11.4-6.9 19.6-5.2 64.9-5.2v5c10.3-5.9 16.6-5.2 54.3-5V80c0-26.5-21.5-48-48-48h-480c-26.5 0-48 21.5-48 48v352c0 26.5 21.5 48 48 48h480c26.5 0 48-21.5 48-48v-144.2c-23.2 7.9-31.9 6-48.8 6zm-37.3-21.5c0 6.4-5.6 8.7-10.7 8.7h-21.6v-17.3h21.6c5.1 0 10.7 1 10.7 7.3 0 .5 0 .8-.1 1.3zm-13.1-42.8c-10.4 0-33.3-.5-45.9.1l-.1 37.3h45.9c5.5 0 10.4-1.1 10.4-7.3 0-5.9-4.9-7.3-10.4-7.3h-24.7v-12.5h24.7c5.3 0 10.5-.9 10.5-7.3 0-6.6-5.2-7.3-10.4-3zm51.4 42.8v1.3c0 6.4-5.6 8.7-10.7 8.7h-21.6v-17.3h21.6c5.1 0 10.7 1 10.7 7.3z"/></svg> 